# xmcd
#
# Track frame offsets:
#	150
#	15770
#	31150
#	48195
#	62625
#	80785
#	95535
#	107627
#	122132
#	142762
#	170580
#	190595
#	207672
#
# Disc length: 2996 seconds
#
# Revision: 2
# Processed by: cddbd v1.4PL0 Copyright (c) Steve Scherf et al.
# Submitted via: audiograbber 1.81.03
#
DISCID=a40bb20d
DTITLE=Various Artist - Best of Blues Guitar
DYEAR=1996
DGENRE=Blues
TTITLE0=Jonny Winter - Johnny Guitar
TTITLE1=Albert Collins - Don't Lose Your Cool
TTITLE2=B.B. King - Three O'Clock Blues
TTITLE3=Keith Richards - I Could Have Stood You Up
TTITLE4=John Hammond - No One Can Forgive Me But My Baby
TTITLE5=Elmore James - Dust My Blues
TTITLE6=Johnny Guitar Watson - Too Tired
TTITLE7=Colin James - Cadillac (Baby)
TTITLE8=John Lee Hooker - Boogie At Russian Hill
TTITLE9=Gary Moore - Still Got The Blues
TTITLE10=Bill Perry - Love Scars
TTITLE11=The Duke Robillard Band - Love Slipped In
TTITLE12=Jimmy Reed - Cry Before I Go
EXTD=
EXTT0=
EXTT1=
EXTT2=
EXTT3=
EXTT4=
EXTT5=
EXTT6=
EXTT7=
EXTT8=
EXTT9=
EXTT10=
EXTT11=
EXTT12=
PLAYORDER=
